<svg width="30" height="25" viewBox="0 0 30 25" fill="none" xmlns="http://www.w3.org/2000/svg">
<g id="Fire 2">
<rect id="Rectangle 166" x="24.5454" width="2.77778" height="5.45455" transform="rotate(90 24.5454 0)" fill="#F6FBF6"/>
<rect id="Rectangle 170" x="24.5454" y="22.2222" width="2.77778" height="5.45455" transform="rotate(90 24.5454 22.2222)" fill="#F6FBF6"/>
<rect id="Rectangle 171" x="21.8181" y="16.6665" width="2.77778" height="2.72727" transform="rotate(90 21.8181 16.6665)" fill="#F6FBF6"/>
<rect id="Rectangle 172" x="21.8181" y="5.55566" width="2.77778" height="2.72727" transform="rotate(90 21.8181 5.55566)" fill="#F6FBF6"/>
<rect id="Rectangle 167" x="27.2727" y="2.77783" width="5.55556" height="5.45455" transform="rotate(90 27.2727 2.77783)" fill="#F6FBF6"/>
<rect id="Rectangle 168" x="30" y="8.3335" width="8.33333" height="16.3636" transform="rotate(90 30 8.3335)" fill="#F6FBF6"/>
<rect id="Rectangle 174" width="2.77778" height="2.72727" transform="matrix(-4.37114e-08 1 1 4.37114e-08 16.3635 0)" fill="#5BC0F8"/>
<rect id="Rectangle 175" width="2.77778" height="2.72727" transform="matrix(-4.37114e-08 1 1 4.37114e-08 19.0908 2.77783)" fill="#5BC0F8"/>
<rect id="Rectangle 179" width="2.77778" height="2.72727" transform="matrix(-4.37114e-08 1 1 4.37114e-08 19.0908 19.4443)" fill="#5BC0F8"/>
<rect id="Rectangle 176" width="2.77778" height="2.72727" transform="matrix(-4.37114e-08 1 1 4.37114e-08 16.3635 5.55566)" fill="#5BC0F8"/>
<rect id="Rectangle 181" width="2.77778" height="2.72727" transform="matrix(-4.37114e-08 1 1 4.37114e-08 16.3635 22.2222)" fill="#5BC0F8"/>
<rect id="Rectangle 180" width="2.77778" height="2.72727" transform="matrix(-4.37114e-08 1 1 4.37114e-08 16.3635 16.6665)" fill="#5BC0F8"/>
<rect id="Rectangle 177" width="2.77778" height="5.45454" transform="matrix(-4.37114e-08 1 1 4.37114e-08 8.18188 8.3335)" fill="#5BC0F8"/>
<rect id="Rectangle 178" width="2.77778" height="5.45454" transform="matrix(-4.37114e-08 1 1 4.37114e-08 8.18188 13.8887)" fill="#5BC0F8"/>
<rect id="Rectangle 192" width="2.77778" height="5.45455" transform="matrix(-4.37114e-08 1 1 4.37114e-08 2.72729 11.1113)" fill="#5BC0F8"/>
<rect id="Rectangle 182" x="16.3635" width="2.77778" height="2.72727" transform="rotate(90 16.3635 0)" fill="#2555E7"/>
<rect id="Rectangle 183" x="19.0908" y="2.77783" width="2.77778" height="2.72727" transform="rotate(90 19.0908 2.77783)" fill="#2555E7"/>
<rect id="Rectangle 184" x="16.3635" y="5.55566" width="2.77778" height="2.72727" transform="rotate(90 16.3635 5.55566)" fill="#2555E7"/>
<rect id="Rectangle 186" x="8.18188" y="8.3335" width="2.77778" height="2.72727" transform="rotate(90 8.18188 8.3335)" fill="#2555E7"/>
<rect id="Rectangle 187" x="8.18188" y="13.8887" width="2.77778" height="2.72727" transform="rotate(90 8.18188 13.8887)" fill="#2555E7"/>
<rect id="Rectangle 188" x="2.72729" y="11.1113" width="2.77778" height="2.72727" transform="rotate(90 2.72729 11.1113)" fill="#2555E7"/>
<rect id="Rectangle 189" x="16.3635" y="16.6665" width="2.77778" height="2.72727" transform="rotate(90 16.3635 16.6665)" fill="#2555E7"/>
<rect id="Rectangle 190" x="19.0908" y="19.4443" width="2.77778" height="2.72727" transform="rotate(90 19.0908 19.4443)" fill="#2555E7"/>
<rect id="Rectangle 191" x="16.3635" y="22.2222" width="2.77778" height="2.72727" transform="rotate(90 16.3635 22.2222)" fill="#2555E7"/>
<rect id="Rectangle 173" x="13.6365" y="11.1113" width="2.77778" height="5.45454" transform="rotate(90 13.6365 11.1113)" fill="#F6FBF6"/>
<rect id="Rectangle 169" x="27.2727" y="16.6665" width="5.55556" height="5.45455" transform="rotate(90 27.2727 16.6665)" fill="#F6FBF6"/>
</g>
</svg>
