<svg width="230" height="249" viewBox="0 0 230 249" fill="none" xmlns="http://www.w3.org/2000/svg">
<g clip-path="url(#clip0_2097_337)">
<path d="M147.2 138.333H138V147.555H147.2V138.333Z" fill="#BAC3AE"/>
<path d="M73.5999 119.889H64.3999V147.556H73.5999V119.889Z" fill="#BAC3AE"/>
<path d="M110.4 64.5555H101.2L101.2 36.8888H110.4V9.22217L119.6 9.22217V36.8888H128.8V64.5555H119.6L119.6 46.1111H110.4L110.4 64.5555Z" fill="#BAC3AE"/>
<path d="M92.0001 83H82.8V101.444H92.0001V83Z" fill="#BAC3AE"/>
<path d="M101.2 64.5557H92V73.7779H101.2V64.5557Z" fill="#BAC3AE"/>
<path d="M165.6 119.889H156.4V147.556H165.6V119.889Z" fill="#BAC3AE"/>
<path d="M230 110.667H211.6V119.889H230V110.667Z" fill="#BAC3AE"/>
<path d="M138 64.5557H128.8V73.7779H138V64.5557Z" fill="#BAC3AE"/>
<path d="M138 147.556V156.778H128.8V166H119.6V175.222H110.4V166H101.2V156.778H92V147.556H138Z" fill="#BAC3AE"/>
<path d="M92.0001 138.333H82.8V147.555H92.0001V138.333Z" fill="#BAC3AE"/>
<path d="M147.2 83H138V101.444H147.2V83Z" fill="#BAC3AE"/>
<path d="M18.4 110.667H0L0 119.889H18.4V110.667Z" fill="#BAC3AE"/>
<path d="M101.2 18.4443H110.4V27.6666H101.2V18.4443Z" fill="#434F4F"/>
<path d="M119.6 18.4443H128.8V27.6666H119.6V18.4443Z" fill="#434F4F"/>
<path d="M110.4 0L119.6 0V9.22222L110.4 9.22222V0Z" fill="#434F4F"/>
<path d="M230 156.778H220.8V166H230V156.778Z" fill="#434F4F"/>
<path d="M92.0001 147.556H82.8V156.778H92.0001V147.556Z" fill="#434F4F"/>
<path d="M119.6 46.1111H110.4V64.5555H119.6V46.1111Z" fill="#434F4F"/>
<path d="M82.8001 147.555H73.6001L73.6001 101.444H92.0001V110.667H82.8001V147.555Z" fill="#434F4F"/>
<path d="M147.2 147.556H138V156.778H147.2V147.556Z" fill="#434F4F"/>
<path d="M64.4 147.556H73.6V166H82.8L82.8 193.667H73.6V202.889H64.4V212.111H27.6L27.6 202.889H18.4L18.4 212.111H9.2L9.2 202.889H0L0 193.667H9.2L9.2 166H0L0 156.778H9.2L9.2 138.333H18.4L18.4 175.222H27.6L27.6 156.778H36.8L36.8 147.556H55.2V129.111H64.4V147.556Z" fill="#434F4F"/>
<path d="M156.4 147.555H147.2V110.667H138V101.444H156.4V147.555Z" fill="#434F4F"/>
<path d="M128.8 184.444H138V202.889H92V184.444H101.2V193.667H128.8V184.444Z" fill="#434F4F"/>
<path d="M138 156.778H128.8V166H138V156.778Z" fill="#434F4F"/>
<path d="M101.2 156.778H92V166H101.2V156.778Z" fill="#434F4F"/>
<path d="M230 193.667V202.889H220.8V212.111H211.6V202.889H202.4V212.111H165.6V202.889H156.4V193.667H147.2V166H156.4V147.556H165.6V129.111H174.8V147.556H193.2V156.778H202.4V175.222H211.6V138.333H220.8V193.667H230Z" fill="#434F4F"/>
<path d="M138 202.889V212.111H128.8V221.333H119.6V230.556H110.4V221.333H101.2V212.111H92V202.889H138Z" fill="#F6FBF6"/>
<path d="M55.2001 221.333H36.8V230.555H55.2001V221.333Z" fill="#F6FBF6"/>
<path d="M193.2 221.333H174.8V230.555H193.2V221.333Z" fill="#F6FBF6"/>
<path d="M82.8 202.889H92.0001V212.111H82.8V202.889Z" fill="#5BC0F8"/>
<path d="M92 212.111H101.2V221.333H92V212.111Z" fill="#5BC0F8"/>
<path d="M101.2 221.333H110.4V230.555H101.2V221.333Z" fill="#5BC0F8"/>
<path d="M110.4 230.556H119.6V239.778H110.4V230.556Z" fill="#5BC0F8"/>
<path d="M119.6 221.333H128.8V230.555H119.6V221.333Z" fill="#5BC0F8"/>
<path d="M128.8 212.111H138V221.333H128.8V212.111Z" fill="#5BC0F8"/>
<path d="M138 202.889H147.2V212.111H138V202.889Z" fill="#5BC0F8"/>
<path d="M128.8 92.2223V110.667H101.2V92.2223H110.4V73.7778H119.6V92.2223H128.8Z" fill="#5BC0F8"/>
<path d="M55.2 221.333H64.3999V230.555H55.2V221.333Z" fill="#5BC0F8"/>
<path d="M193.2 221.333H202.4V230.555H193.2V221.333Z" fill="#5BC0F8"/>
<path d="M55.2001 230.556H36.8V239.778H55.2001V230.556Z" fill="#5BC0F8"/>
<path d="M193.2 230.556H174.8V239.778H193.2V230.556Z" fill="#5BC0F8"/>
<path d="M27.6001 221.333H36.8001V230.555H27.6001V221.333Z" fill="#5BC0F8"/>
<path d="M165.6 221.333H174.8V230.555H165.6V221.333Z" fill="#5BC0F8"/>
<path d="M9.19995 212.111H18.4V221.333H9.19995L9.19995 212.111Z" fill="#5BC0F8"/>
<path d="M211.6 212.111H220.8V221.333H211.6V212.111Z" fill="#5BC0F8"/>
<path d="M82.8 212.111H92.0001V221.333H82.8V212.111Z" fill="#2555E7"/>
<path d="M92 221.333H101.2V230.555H92V221.333Z" fill="#2555E7"/>
<path d="M101.2 230.556H110.4V239.778H101.2V230.556Z" fill="#2555E7"/>
<path d="M110.4 239.778H119.6V249H110.4V239.778Z" fill="#2555E7"/>
<path d="M119.6 230.556H128.8V239.778H119.6V230.556Z" fill="#2555E7"/>
<path d="M128.8 221.333H138V230.555H128.8V221.333Z" fill="#2555E7"/>
<path d="M138 212.111H147.2V221.333H138V212.111Z" fill="#2555E7"/>
<path d="M138 110.667V129.111H128.8V138.333H101.2V129.111H92V110.667L138 110.667Z" fill="#2555E7"/>
<path d="M27.6001 230.556H36.8001V239.778H27.6001V230.556Z" fill="#2555E7"/>
<path d="M165.6 230.556H174.8V239.778H165.6V230.556Z" fill="#2555E7"/>
<path d="M55.2001 239.778H36.8V249H55.2001V239.778Z" fill="#2555E7"/>
<path d="M193.2 239.778H174.8V249H193.2V239.778Z" fill="#2555E7"/>
<path d="M55.2 230.556H64.3999V239.778H55.2V230.556Z" fill="#2555E7"/>
<path d="M193.2 230.556H202.4V239.778H193.2V230.556Z" fill="#2555E7"/>
<path d="M46 193.667H55.2V202.889H46V193.667Z" fill="#1E252A"/>
<path d="M36.8 184.444H46V193.667H36.8V184.444Z" fill="#1E252A"/>
<path d="M27.6001 175.222H36.8001V184.444H27.6001V175.222Z" fill="#1E252A"/>
<path d="M64.3999 175.222H73.5999V184.444H64.3999V175.222Z" fill="#1E252A"/>
<path d="M82.8 184.444H92.0001V193.667H82.8V184.444Z" fill="#1E252A"/>
<path d="M82.8 175.222H92.0001V184.444H82.8V175.222Z" fill="#1E252A"/>
<path d="M92 166H101.2V175.222H92V166Z" fill="#1E252A"/>
<path d="M55.2 166H64.3999V175.222H55.2V166Z" fill="#1E252A"/>
<path d="M147.2 147.556H156.4V156.778H147.2V147.556Z" fill="#1E252A"/>
<path d="M165.6 166H174.8V175.222H165.6V166Z" fill="#1E252A"/>
<path d="M184 184.444H193.2V193.667H184V184.444Z" fill="#1E252A"/>
<path d="M156.4 175.222H165.6V184.444H156.4V175.222Z" fill="#1E252A"/>
<path d="M138 175.222H147.2V184.444H138V175.222Z" fill="#1E252A"/>
<path d="M138 184.444H147.2V193.667H138V184.444Z" fill="#1E252A"/>
<path d="M174.8 193.667H184V202.889H174.8V193.667Z" fill="#1E252A"/>
<path d="M138 156.778H147.2V166H138V156.778Z" fill="#1E252A"/>
<path d="M128.8 166H138V175.222H128.8V166Z" fill="#1E252A"/>
<path d="M82.8 156.778H92.0001V166H82.8V156.778Z" fill="#1E252A"/>
<path d="M82.8 110.667H92.0001V119.889H82.8V110.667Z" fill="#1E252A"/>
<path d="M82.8 119.889H92.0001V129.111H82.8V119.889Z" fill="#1E252A"/>
<path d="M92 101.444H101.2V110.667H92V101.444Z" fill="#1E252A"/>
<path d="M92 92.2222H101.2V101.444H92V92.2222Z" fill="#1E252A"/>
<path d="M101.2 83H110.4V92.2222H101.2V83Z" fill="#1E252A"/>
<path d="M101.2 73.7778H110.4V83.0001H101.2V73.7778Z" fill="#1E252A"/>
<path d="M110.4 64.5557H119.6V73.7779H110.4V64.5557Z" fill="#1E252A"/>
<path d="M119.6 73.7778H128.8V83.0001H119.6V73.7778Z" fill="#1E252A"/>
<path d="M119.6 83H128.8V92.2222H119.6V83Z" fill="#1E252A"/>
<path d="M128.8 92.2222H138V101.444H128.8V92.2222Z" fill="#1E252A"/>
<path d="M128.8 101.444H138V110.667H128.8V101.444Z" fill="#1E252A"/>
<path d="M138 110.667H147.2V119.889H138V110.667Z" fill="#1E252A"/>
<path d="M138 119.889H147.2V129.111H138V119.889Z" fill="#1E252A"/>
<path d="M174.8 156.778H184V166H174.8V156.778Z" fill="#1E252A"/>
<path d="M193.2 175.222H202.4V184.444H193.2V175.222Z" fill="#1E252A"/>
<path d="M128.8 129.111H138V138.333H128.8V129.111Z" fill="#1E252A"/>
<path d="M119.6 138.333H128.8V147.555H119.6V138.333Z" fill="#1E252A"/>
<path d="M73.6001 147.556H82.8001V156.778H73.6001V147.556Z" fill="#1E252A"/>
<path d="M110.4 138.333H119.6V147.555H110.4V138.333Z" fill="#1E252A"/>
<path d="M101.2 138.333H110.4V147.555H101.2V138.333Z" fill="#1E252A"/>
<path d="M92 129.111H101.2V138.333H92V129.111Z" fill="#1E252A"/>
<path d="M46 156.778H55.2V166H46V156.778Z" fill="#1E252A"/>
<path d="M230 119.889V156.778H220.8V138.333H211.6V119.889H230Z" fill="#7F918B"/>
<path d="M55.2001 212.111H36.8V221.333H55.2001V212.111Z" fill="#7F918B"/>
<path d="M193.2 212.111H174.8V221.333H193.2V212.111Z" fill="#7F918B"/>
<path d="M64.3999 119.889H55.2V129.111H64.3999V119.889Z" fill="#7F918B"/>
<path d="M101.2 138.333H92V147.555H101.2V138.333Z" fill="#7F918B"/>
<path d="M128.8 64.5557H119.6V73.7779H128.8V64.5557Z" fill="#7F918B"/>
<path d="M82.8001 92.2222H73.6001V101.444H82.8001V92.2222Z" fill="#7F918B"/>
<path d="M138 55.3333H128.8V64.5555H138V55.3333Z" fill="#7F918B"/>
<path d="M138 138.333H128.8V147.555H138V138.333Z" fill="#7F918B"/>
<path d="M27.5999 156.778H18.3999L18.3999 175.222H27.5999L27.5999 156.778Z" fill="#7F918B"/>
<path d="M92.0001 129.111H82.8V138.333H92.0001V129.111Z" fill="#7F918B"/>
<path d="M92.0001 166H82.8V175.222H92.0001V166Z" fill="#7F918B"/>
<path d="M18.4 138.333H9.2L9.2 156.778H0L0 119.889H18.4L18.4 138.333Z" fill="#7F918B"/>
<path d="M36.8001 184.444H27.6001V193.667H36.8001V184.444Z" fill="#7F918B"/>
<path d="M64.3999 175.222H55.2V184.444H64.3999V175.222Z" fill="#7F918B"/>
<path d="M82.8001 156.778H73.6001V166H82.8001V156.778Z" fill="#7F918B"/>
<path d="M55.2 166H46V175.222H55.2V166Z" fill="#7F918B"/>
<path d="M101.2 55.3333H92V64.5555H101.2V55.3333Z" fill="#7F918B"/>
<path d="M92 83.0001H82.8V73.7778H101.2V92.2223H92V83.0001Z" fill="#7F918B"/>
<path d="M73.5999 101.444H64.3999V119.889H73.5999V101.444Z" fill="#7F918B"/>
<path d="M36.8001 147.556H27.6001V156.778H36.8001V147.556Z" fill="#7F918B"/>
<path d="M110.4 64.5557H101.2V73.7779H110.4V64.5557Z" fill="#7F918B"/>
<path d="M128.8 27.6667H119.6V36.889H128.8V27.6667Z" fill="#7F918B"/>
<path d="M9.2 175.222H0L0 193.667H9.2L9.2 175.222Z" fill="#7F918B"/>
<path d="M46 193.667H36.8V202.889H46V193.667Z" fill="#7F918B"/>
<path d="M55.2 138.333H46V147.555H55.2V138.333Z" fill="#7F918B"/>
<path d="M110.4 27.6667H101.2V36.889H110.4V27.6667Z" fill="#7F918B"/>
<path d="M128.8 175.222H138V184.444H128.8V193.667H101.2V184.444H92V175.222H101.2V166H110.4V175.222H119.6V166H128.8V175.222Z" fill="#7F918B"/>
<path d="M174.8 119.889H165.6V129.111H174.8V119.889Z" fill="#7F918B"/>
<path d="M156.4 156.778H147.2V166H156.4V156.778Z" fill="#7F918B"/>
<path d="M156.4 92.2222H147.2V101.444H156.4V92.2222Z" fill="#7F918B"/>
<path d="M147.2 129.111H138V138.333H147.2V129.111Z" fill="#7F918B"/>
<path d="M147.2 166H138V175.222H147.2V166Z" fill="#7F918B"/>
<path d="M202.4 147.556H193.2V156.778H202.4V147.556Z" fill="#7F918B"/>
<path d="M174.8 175.222H165.6V184.444H174.8V175.222Z" fill="#7F918B"/>
<path d="M184 138.333H174.8V147.555H184V138.333Z" fill="#7F918B"/>
<path d="M193.2 193.667H184V202.889H193.2V193.667Z" fill="#7F918B"/>
<path d="M202.4 184.444H193.2V193.667H202.4V184.444Z" fill="#7F918B"/>
<path d="M184 166H174.8V175.222H184V166Z" fill="#7F918B"/>
<path d="M128.8 92.2223V73.7778H147.2V83.0001H138V92.2223H128.8Z" fill="#7F918B"/>
<path d="M165.6 101.444H156.4V119.889H165.6V101.444Z" fill="#7F918B"/>
<path d="M211.6 156.778H202.4V175.222H211.6V156.778Z" fill="#7F918B"/>
<path d="M230 175.222H220.8V193.667H230V175.222Z" fill="#7F918B"/>
</g>
<defs>
<clipPath id="clip0_2097_337">
<rect width="230" height="249" fill="white"/>
</clipPath>
</defs>
</svg>
