<svg width="264" height="232" viewBox="0 0 264 232" fill="none" xmlns="http://www.w3.org/2000/svg">
<rect x="137.28" y="21.0908" width="10.5455" height="10.56" transform="rotate(-90 137.28 21.0908)" fill="#BAC3AE"/>
<rect x="137.28" y="221.455" width="10.5455" height="10.56" transform="rotate(-90 137.28 221.455)" fill="#BAC3AE"/>
<rect x="95.04" y="189.818" width="10.5455" height="10.56" transform="rotate(-90 95.04 189.818)" fill="#BAC3AE"/>
<rect x="105.6" y="200.364" width="10.5455" height="10.56" transform="rotate(-90 105.6 200.364)" fill="#BAC3AE"/>
<rect x="105.6" y="42.1816" width="10.5455" height="10.56" transform="rotate(-90 105.6 42.1816)" fill="#BAC3AE"/>
<rect x="95.04" y="52.7271" width="10.5455" height="10.56" transform="rotate(-90 95.04 52.7271)" fill="#BAC3AE"/>
<rect x="95.04" y="147.636" width="10.5455" height="10.56" transform="rotate(-90 95.04 147.636)" fill="#BAC3AE"/>
<rect x="95.04" y="94.9092" width="10.5455" height="10.56" transform="rotate(-90 95.04 94.9092)" fill="#BAC3AE"/>
<rect x="84.48" y="84.3638" width="21.0909" height="10.56" transform="rotate(-90 84.48 84.3638)" fill="#BAC3AE"/>
<rect x="84.48" y="158.182" width="10.5455" height="10.56" transform="rotate(-90 84.48 158.182)" fill="#BAC3AE"/>
<rect x="84.48" y="168.727" width="10.5455" height="10.56" transform="rotate(-90 84.48 168.727)" fill="#BAC3AE"/>
<rect x="10.5601" y="126.545" width="10.5455" height="10.56" transform="rotate(-90 10.5601 126.545)" fill="#BAC3AE"/>
<rect y="126.545" width="10.5455" height="10.56" transform="rotate(-90 0 126.545)" fill="#8E979E"/>
<rect x="63.3601" y="168.727" width="10.5455" height="10.56" transform="rotate(-90 63.3601 168.727)" fill="#8E979E"/>
<rect x="63.3601" y="73.8184" width="10.5455" height="10.56" transform="rotate(-90 63.3601 73.8184)" fill="#8E979E"/>
<rect x="73.9199" y="168.727" width="21.0909" height="10.56" transform="rotate(-90 73.9199 168.727)" fill="#8E979E"/>
<rect x="73.9199" y="84.3638" width="21.0909" height="10.56" transform="rotate(-90 73.9199 84.3638)" fill="#8E979E"/>
<rect x="116.16" y="210.909" width="10.5455" height="10.56" transform="rotate(-90 116.16 210.909)" fill="#8E979E"/>
<rect x="116.16" y="31.6362" width="10.5455" height="10.56" transform="rotate(-90 116.16 31.6362)" fill="#8E979E"/>
<rect x="126.72" y="21.0908" width="10.5455" height="10.56" transform="rotate(-90 126.72 21.0908)" fill="#8E979E"/>
<rect x="137.28" y="10.5454" width="10.5455" height="10.56" transform="rotate(-90 137.28 10.5454)" fill="#8E979E"/>
<rect x="147.84" y="21.0908" width="10.5455" height="10.56" transform="rotate(-90 147.84 21.0908)" fill="#8E979E"/>
<rect x="147.84" y="221.455" width="10.5455" height="10.56" transform="rotate(-90 147.84 221.455)" fill="#8E979E"/>
<rect x="126.72" y="221.455" width="10.5455" height="10.56" transform="rotate(-90 126.72 221.455)" fill="#8E979E"/>
<rect x="137.28" y="232" width="10.5455" height="10.56" transform="rotate(-90 137.28 232)" fill="#8E979E"/>
<rect y="116" width="10.5455" height="10.56" transform="rotate(-90 0 116)" fill="#8E979E"/>
<rect x="10.5601" y="116" width="10.5455" height="10.56" transform="rotate(-90 10.5601 116)" fill="#BAC3AE"/>
<rect x="158.4" y="158.182" width="31.6364" height="10.56" transform="rotate(-90 158.4 158.182)" fill="#465550"/>
<rect x="158.4" y="221.455" width="10.5455" height="10.56" transform="rotate(-90 158.4 221.455)" fill="#465550"/>
<rect x="158.4" y="21.0908" width="10.5455" height="10.56" transform="rotate(-90 158.4 21.0908)" fill="#465550"/>
<rect x="158.4" y="105.455" width="31.6364" height="10.56" transform="rotate(-90 158.4 105.455)" fill="#465550"/>
<rect x="137.28" y="126.545" width="21.0909" height="21.12" transform="rotate(-90 137.28 126.545)" fill="#465550"/>
<rect x="126.72" y="137.091" width="10.5455" height="21.12" transform="rotate(-90 126.72 137.091)" fill="#465550"/>
<rect x="105.6" y="147.636" width="10.5455" height="31.68" transform="rotate(-90 105.6 147.636)" fill="#465550"/>
<rect x="126.72" y="210.909" width="10.5455" height="31.68" transform="rotate(-90 126.72 210.909)" fill="#465550"/>
<rect x="105.6" y="179.273" width="10.5455" height="10.56" transform="rotate(-90 105.6 179.273)" fill="#465550"/>
<rect x="105.6" y="63.2729" width="10.5455" height="10.56" transform="rotate(-90 105.6 63.2729)" fill="#465550"/>
<rect x="126.72" y="105.455" width="10.5454" height="21.12" transform="rotate(-90 126.72 105.455)" fill="#465550"/>
<rect x="105.6" y="94.9092" width="10.5455" height="31.68" transform="rotate(-90 105.6 94.9092)" fill="#465550"/>
<rect x="126.72" y="31.6362" width="10.5455" height="31.68" transform="rotate(-90 126.72 31.6362)" fill="#465550"/>
<rect x="42.24" y="126.545" width="21.0909" height="31.68" transform="rotate(-90 42.24 126.545)" fill="#465550"/>
<rect x="52.8" y="94.9092" width="10.5455" height="10.56" transform="rotate(-90 52.8 94.9092)" fill="#465550"/>
<rect x="52.8" y="147.636" width="10.5455" height="10.56" transform="rotate(-90 52.8 147.636)" fill="#465550"/>
<rect x="21.1201" y="137.091" width="42.1818" height="10.56" transform="rotate(-90 21.1201 137.091)" fill="#7F918B"/>
<rect x="42.24" y="137.091" width="10.5455" height="31.68" transform="rotate(-90 42.24 137.091)" fill="#7F918B"/>
<rect x="42.24" y="105.455" width="10.5454" height="31.68" transform="rotate(-90 42.24 105.455)" fill="#7F918B"/>
<rect x="31.6799" y="147.636" width="63.2727" height="10.56" transform="rotate(-90 31.6799 147.636)" fill="#7F918B"/>
<rect x="42.24" y="94.9092" width="10.5455" height="10.56" transform="rotate(-90 42.24 94.9092)" fill="#7F918B"/>
<rect x="42.24" y="147.636" width="10.5455" height="10.56" transform="rotate(-90 42.24 147.636)" fill="#7F918B"/>
<rect x="126.72" y="200.364" width="10.5455" height="31.68" transform="rotate(-90 126.72 200.364)" fill="#7F918B"/>
<rect x="126.72" y="42.1816" width="10.5455" height="31.68" transform="rotate(-90 126.72 42.1816)" fill="#7F918B"/>
<rect x="137.28" y="189.818" width="10.5455" height="21.12" transform="rotate(-90 137.28 189.818)" fill="#7F918B"/>
<rect x="137.28" y="52.7271" width="10.5455" height="21.12" transform="rotate(-90 137.28 52.7271)" fill="#7F918B"/>
<rect x="147.84" y="179.273" width="10.5455" height="10.56" transform="rotate(-90 147.84 179.273)" fill="#7F918B"/>
<rect x="95.04" y="168.727" width="10.5455" height="21.12" transform="rotate(-90 95.04 168.727)" fill="#7F918B"/>
<rect x="95.04" y="73.8184" width="10.5455" height="21.12" transform="rotate(-90 95.04 73.8184)" fill="#7F918B"/>
<rect x="105.6" y="189.818" width="10.5455" height="10.56" transform="rotate(-90 105.6 189.818)" fill="#7F918B"/>
<rect x="105.6" y="52.7271" width="10.5455" height="10.56" transform="rotate(-90 105.6 52.7271)" fill="#7F918B"/>
<rect x="147.84" y="63.2729" width="10.5455" height="10.56" transform="rotate(-90 147.84 63.2729)" fill="#7F918B"/>
<rect x="147.84" y="158.182" width="31.6364" height="10.56" transform="rotate(-90 147.84 158.182)" fill="#7F918B"/>
<rect x="147.84" y="105.455" width="31.6364" height="10.56" transform="rotate(-90 147.84 105.455)" fill="#7F918B"/>
<rect x="137.28" y="147.636" width="10.5455" height="10.56" transform="rotate(-90 137.28 147.636)" fill="#7F918B"/>
<rect x="137.28" y="94.9092" width="10.5455" height="10.56" transform="rotate(-90 137.28 94.9092)" fill="#7F918B"/>
<rect x="116.16" y="200.364" width="10.5455" height="10.56" transform="rotate(-90 116.16 200.364)" fill="#1E252A"/>
<rect x="116.16" y="42.1816" width="10.5455" height="10.56" transform="rotate(-90 116.16 42.1816)" fill="#1E252A"/>
<rect x="116.16" y="63.2729" width="10.5455" height="21.12" transform="rotate(-90 116.16 63.2729)" fill="#1E252A"/>
<rect x="126.72" y="126.545" width="21.0909" height="10.56" transform="rotate(-90 126.72 126.545)" fill="#1E252A"/>
<rect x="84.48" y="105.455" width="10.5454" height="42.24" transform="rotate(-90 84.48 105.455)" fill="#1E252A"/>
<rect x="73.9199" y="126.545" width="21.0909" height="10.56" transform="rotate(-90 73.9199 126.545)" fill="#1E252A"/>
<rect x="84.48" y="137.091" width="10.5455" height="42.24" transform="rotate(-90 84.48 137.091)" fill="#1E252A"/>
<rect x="116.16" y="189.818" width="10.5455" height="10.56" transform="rotate(-90 116.16 189.818)" fill="#464F54"/>
<rect x="126.72" y="189.818" width="10.5455" height="10.56" transform="rotate(-90 126.72 189.818)" fill="#464F54"/>
<rect x="137.28" y="179.273" width="10.5455" height="10.56" transform="rotate(-90 137.28 179.273)" fill="#464F54"/>
<rect x="116.16" y="168.727" width="10.5455" height="21.12" transform="rotate(-90 116.16 168.727)" fill="#464F54"/>
<rect x="116.16" y="73.8184" width="10.5455" height="21.12" transform="rotate(-90 116.16 73.8184)" fill="#464F54"/>
<rect x="116.16" y="52.7271" width="10.5455" height="21.12" transform="rotate(-90 116.16 52.7271)" fill="#464F54"/>
<rect x="137.28" y="158.182" width="10.5455" height="10.56" transform="rotate(-90 137.28 158.182)" fill="#464F54"/>
<rect x="147.84" y="168.727" width="10.5455" height="10.56" transform="rotate(-90 147.84 168.727)" fill="#464F54"/>
<rect x="137.28" y="84.3638" width="10.5455" height="10.56" transform="rotate(-90 137.28 84.3638)" fill="#464F54"/>
<rect x="137.28" y="63.2729" width="10.5455" height="10.56" transform="rotate(-90 137.28 63.2729)" fill="#464F54"/>
<rect x="147.84" y="73.8184" width="10.5455" height="10.56" transform="rotate(-90 147.84 73.8184)" fill="#464F54"/>
<rect x="73.9199" y="105.455" width="10.5454" height="10.56" transform="rotate(-90 73.9199 105.455)" fill="#464F54"/>
<rect x="84.48" y="94.9092" width="10.5455" height="10.56" transform="rotate(-90 84.48 94.9092)" fill="#464F54"/>
<rect x="84.48" y="147.636" width="10.5455" height="10.56" transform="rotate(-90 84.48 147.636)" fill="#464F54"/>
<rect x="73.9199" y="137.091" width="10.5455" height="10.56" transform="rotate(-90 73.9199 137.091)" fill="#464F54"/>
<rect x="63.3601" y="158.182" width="10.5455" height="10.56" transform="rotate(-90 63.3601 158.182)" fill="#464F54"/>
<rect x="52.8" y="168.727" width="10.5455" height="10.56" transform="rotate(-90 52.8 168.727)" fill="#464F54"/>
<rect x="42.24" y="158.182" width="10.5455" height="10.56" transform="rotate(-90 42.24 158.182)" fill="#464F54"/>
<rect x="21.1201" y="147.636" width="10.5455" height="10.56" transform="rotate(-90 21.1201 147.636)" fill="#464F54"/>
<rect x="10.5601" y="105.455" width="10.5454" height="10.56" transform="rotate(-90 10.5601 105.455)" fill="#464F54"/>
<rect x="21.1201" y="94.9092" width="10.5455" height="10.56" transform="rotate(-90 21.1201 94.9092)" fill="#464F54"/>
<rect x="42.24" y="84.3638" width="10.5455" height="10.56" transform="rotate(-90 42.24 84.3638)" fill="#464F54"/>
<rect x="52.8" y="73.8184" width="10.5455" height="10.56" transform="rotate(-90 52.8 73.8184)" fill="#464F54"/>
<rect x="63.3601" y="84.3638" width="10.5455" height="10.56" transform="rotate(-90 63.3601 84.3638)" fill="#464F54"/>
<rect x="10.5601" y="137.091" width="10.5455" height="10.56" transform="rotate(-90 10.5601 137.091)" fill="#464F54"/>
<rect x="147.84" y="232" width="10.5455" height="10.56" transform="rotate(-90 147.84 232)" fill="#464F54"/>
<rect x="147.84" y="10.5454" width="10.5455" height="10.56" transform="rotate(-90 147.84 10.5454)" fill="#464F54"/>
<rect x="52.8" y="158.182" width="10.5455" height="10.56" transform="rotate(-90 52.8 158.182)" fill="#1E252A"/>
<rect x="63.3601" y="147.636" width="10.5455" height="10.56" transform="rotate(-90 63.3601 147.636)" fill="#1E252A"/>
<rect x="73.9199" y="147.636" width="10.5455" height="10.56" transform="rotate(-90 73.9199 147.636)" fill="#1E252A"/>
<rect x="73.9199" y="94.9092" width="10.5455" height="10.56" transform="rotate(-90 73.9199 94.9092)" fill="#1E252A"/>
<rect x="63.3601" y="94.9092" width="10.5455" height="10.56" transform="rotate(-90 63.3601 94.9092)" fill="#1E252A"/>
<rect x="52.8" y="84.3638" width="10.5455" height="10.56" transform="rotate(-90 52.8 84.3638)" fill="#1E252A"/>
<rect x="116.16" y="179.273" width="10.5455" height="21.12" transform="rotate(-90 116.16 179.273)" fill="#1E252A"/>
<rect x="95.04" y="158.182" width="10.5455" height="42.24" transform="rotate(-90 95.04 158.182)" fill="#1E252A"/>
<rect x="137.28" y="168.727" width="10.5455" height="10.56" transform="rotate(-90 137.28 168.727)" fill="#1E252A"/>
<rect x="137.28" y="73.8184" width="10.5455" height="10.56" transform="rotate(-90 137.28 73.8184)" fill="#1E252A"/>
<rect x="95.04" y="84.3638" width="10.5455" height="42.24" transform="rotate(-90 95.04 84.3638)" fill="#1E252A"/>
<rect x="84.48" y="126.545" width="21.0909" height="10.56" transform="rotate(-90 84.48 126.545)" fill="#5BC0F8"/>
<rect x="168.96" y="126.545" width="21.0909" height="21.12" transform="rotate(-90 168.96 126.545)" fill="#5BC0F8"/>
<rect x="168.96" y="168.727" width="10.5455" height="21.12" transform="rotate(-90 168.96 168.727)" fill="#5BC0F8"/>
<rect x="200.64" y="158.182" width="10.5455" height="10.56" transform="rotate(-90 200.64 158.182)" fill="#5BC0F8"/>
<rect x="200.64" y="137.091" width="10.5455" height="10.56" transform="rotate(-90 200.64 137.091)" fill="#5BC0F8"/>
<rect x="168.96" y="73.8184" width="10.5455" height="21.12" transform="rotate(-90 168.96 73.8184)" fill="#5BC0F8"/>
<rect x="200.64" y="84.3638" width="10.5455" height="10.56" transform="rotate(-90 200.64 84.3638)" fill="#5BC0F8"/>
<rect x="200.64" y="105.455" width="10.5454" height="10.56" transform="rotate(-90 200.64 105.455)" fill="#5BC0F8"/>
<rect x="211.2" y="94.9092" width="10.5455" height="31.68" transform="rotate(-90 211.2 94.9092)" fill="#5BC0F8"/>
<rect x="211.2" y="147.636" width="10.5455" height="31.68" transform="rotate(-90 211.2 147.636)" fill="#5BC0F8"/>
<rect x="95.04" y="126.545" width="21.0909" height="31.68" transform="rotate(-90 95.04 126.545)" fill="#2555E7"/>
<rect x="211.2" y="158.182" width="10.5455" height="10.56" transform="rotate(-90 211.2 158.182)" fill="#2555E7"/>
<rect x="211.2" y="137.091" width="10.5455" height="10.56" transform="rotate(-90 211.2 137.091)" fill="#2555E7"/>
<rect x="253.44" y="147.636" width="10.5455" height="10.56" transform="rotate(-90 253.44 147.636)" fill="#2555E7"/>
<rect x="253.44" y="94.9092" width="10.5455" height="10.56" transform="rotate(-90 253.44 94.9092)" fill="#2555E7"/>
<rect x="211.2" y="84.3638" width="10.5455" height="10.56" transform="rotate(-90 211.2 84.3638)" fill="#2555E7"/>
<rect x="211.2" y="105.455" width="10.5454" height="10.56" transform="rotate(-90 211.2 105.455)" fill="#2555E7"/>
<rect x="168.96" y="158.182" width="31.6364" height="31.68" transform="rotate(-90 168.96 158.182)" fill="#F6FBF6"/>
<rect x="168.96" y="105.455" width="31.6364" height="31.68" transform="rotate(-90 168.96 105.455)" fill="#F6FBF6"/>
<rect x="200.64" y="147.636" width="10.5455" height="10.56" transform="rotate(-90 200.64 147.636)" fill="#F6FBF6"/>
<rect x="200.64" y="94.9092" width="10.5455" height="10.56" transform="rotate(-90 200.64 94.9092)" fill="#F6FBF6"/>
<rect x="168.96" y="221.455" width="10.5455" height="10.56" transform="rotate(-90 168.96 221.455)" fill="#FCEB77"/>
<rect x="168.96" y="21.0908" width="10.5455" height="10.56" transform="rotate(-90 168.96 21.0908)" fill="#FCEB77"/>
<rect x="179.52" y="221.455" width="10.5455" height="10.56" transform="rotate(-90 179.52 221.455)" fill="#EE9027"/>
<rect x="179.52" y="21.0908" width="10.5455" height="10.56" transform="rotate(-90 179.52 21.0908)" fill="#EE9027"/>
<rect x="190.08" y="221.455" width="10.5455" height="10.56" transform="rotate(-90 190.08 221.455)" fill="#A13413"/>
<rect x="190.08" y="21.0908" width="10.5455" height="10.56" transform="rotate(-90 190.08 21.0908)" fill="#A13413"/>
</svg>
