<svg width="232" height="264" viewBox="0 0 232 264" fill="none" xmlns="http://www.w3.org/2000/svg">
<rect x="210.909" y="137.28" width="10.5455" height="10.56" fill="#BAC3AE"/>
<rect x="10.5454" y="137.28" width="10.5455" height="10.56" fill="#BAC3AE"/>
<rect x="42.1819" y="95.04" width="10.5455" height="10.56" fill="#BAC3AE"/>
<rect x="31.6365" y="105.6" width="10.5455" height="10.56" fill="#BAC3AE"/>
<rect x="189.818" y="105.6" width="10.5455" height="10.56" fill="#BAC3AE"/>
<rect x="179.273" y="95.04" width="10.5455" height="10.56" fill="#BAC3AE"/>
<rect x="84.3635" y="95.04" width="10.5455" height="10.56" fill="#BAC3AE"/>
<rect x="137.091" y="95.04" width="10.5455" height="10.56" fill="#BAC3AE"/>
<rect x="147.636" y="84.48" width="21.0909" height="10.56" fill="#BAC3AE"/>
<rect x="73.8181" y="84.48" width="10.5455" height="10.56" fill="#BAC3AE"/>
<rect x="63.2727" y="84.48" width="10.5455" height="10.56" fill="#BAC3AE"/>
<rect x="105.455" y="10.5601" width="10.5455" height="10.56" fill="#BAC3AE"/>
<rect x="105.455" width="10.5455" height="10.56" fill="#8E979E"/>
<rect x="63.2727" y="63.3601" width="10.5455" height="10.56" fill="#8E979E"/>
<rect x="158.182" y="63.3601" width="10.5455" height="10.56" fill="#8E979E"/>
<rect x="63.2727" y="73.9199" width="21.0909" height="10.56" fill="#8E979E"/>
<rect x="147.636" y="73.9199" width="21.0909" height="10.56" fill="#8E979E"/>
<rect x="21.0908" y="116.16" width="10.5455" height="10.56" fill="#8E979E"/>
<rect x="200.364" y="116.16" width="10.5455" height="10.56" fill="#8E979E"/>
<rect x="210.909" y="126.72" width="10.5455" height="10.56" fill="#8E979E"/>
<rect x="221.455" y="137.28" width="10.5455" height="10.56" fill="#8E979E"/>
<rect x="210.909" y="147.84" width="10.5455" height="10.56" fill="#8E979E"/>
<rect x="10.5454" y="147.84" width="10.5455" height="10.56" fill="#8E979E"/>
<rect x="10.5454" y="126.72" width="10.5455" height="10.56" fill="#8E979E"/>
<rect y="137.28" width="10.5455" height="10.56" fill="#8E979E"/>
<rect x="116" width="10.5455" height="10.56" fill="#8E979E"/>
<rect x="116" y="10.5601" width="10.5455" height="10.56" fill="#BAC3AE"/>
<rect x="73.8181" y="158.4" width="31.6364" height="10.56" fill="#465550"/>
<rect x="10.5454" y="158.4" width="10.5455" height="10.56" fill="#465550"/>
<rect x="210.909" y="158.4" width="10.5455" height="10.56" fill="#465550"/>
<rect x="126.545" y="158.4" width="31.6364" height="10.56" fill="#465550"/>
<rect x="105.455" y="137.28" width="21.0909" height="21.12" fill="#465550"/>
<rect x="94.9092" y="126.72" width="10.5455" height="21.12" fill="#465550"/>
<rect x="84.3635" y="105.6" width="10.5455" height="31.68" fill="#465550"/>
<rect x="21.0908" y="126.72" width="10.5455" height="31.68" fill="#465550"/>
<rect x="52.7273" y="105.6" width="10.5455" height="10.56" fill="#465550"/>
<rect x="168.727" y="105.6" width="10.5455" height="10.56" fill="#465550"/>
<rect x="126.545" y="126.72" width="10.5454" height="21.12" fill="#465550"/>
<rect x="137.091" y="105.6" width="10.5455" height="31.68" fill="#465550"/>
<rect x="200.364" y="126.72" width="10.5455" height="31.68" fill="#465550"/>
<rect x="105.455" y="42.24" width="21.0909" height="31.68" fill="#465550"/>
<rect x="137.091" y="52.8" width="10.5455" height="10.56" fill="#465550"/>
<rect x="84.3635" y="52.8" width="10.5455" height="10.56" fill="#465550"/>
<rect x="94.9092" y="21.1201" width="42.1818" height="10.56" fill="#7F918B"/>
<rect x="94.9092" y="42.24" width="10.5455" height="31.68" fill="#7F918B"/>
<rect x="126.545" y="42.24" width="10.5454" height="31.68" fill="#7F918B"/>
<rect x="84.3635" y="31.6799" width="63.2727" height="10.56" fill="#7F918B"/>
<rect x="137.091" y="42.24" width="10.5455" height="10.56" fill="#7F918B"/>
<rect x="84.3635" y="42.24" width="10.5455" height="10.56" fill="#7F918B"/>
<rect x="31.6365" y="126.72" width="10.5455" height="31.68" fill="#7F918B"/>
<rect x="189.818" y="126.72" width="10.5455" height="31.68" fill="#7F918B"/>
<rect x="42.1819" y="137.28" width="10.5455" height="21.12" fill="#7F918B"/>
<rect x="179.273" y="137.28" width="10.5455" height="21.12" fill="#7F918B"/>
<rect x="52.7273" y="147.84" width="10.5455" height="10.56" fill="#7F918B"/>
<rect x="63.2727" y="95.04" width="10.5455" height="21.12" fill="#7F918B"/>
<rect x="158.182" y="95.04" width="10.5455" height="21.12" fill="#7F918B"/>
<rect x="42.1819" y="105.6" width="10.5455" height="10.56" fill="#7F918B"/>
<rect x="179.273" y="105.6" width="10.5455" height="10.56" fill="#7F918B"/>
<rect x="168.727" y="147.84" width="10.5455" height="10.56" fill="#7F918B"/>
<rect x="73.8181" y="147.84" width="31.6364" height="10.56" fill="#7F918B"/>
<rect x="126.545" y="147.84" width="31.6364" height="10.56" fill="#7F918B"/>
<rect x="84.3635" y="137.28" width="10.5455" height="10.56" fill="#7F918B"/>
<rect x="137.091" y="137.28" width="10.5455" height="10.56" fill="#7F918B"/>
<rect x="31.6365" y="116.16" width="10.5455" height="10.56" fill="#1E252A"/>
<rect x="189.818" y="116.16" width="10.5455" height="10.56" fill="#1E252A"/>
<rect x="168.727" y="116.16" width="10.5455" height="21.12" fill="#1E252A"/>
<rect x="105.455" y="126.72" width="21.0909" height="10.56" fill="#1E252A"/>
<rect x="126.545" y="84.48" width="10.5454" height="42.24" fill="#1E252A"/>
<rect x="105.455" y="73.9199" width="21.0909" height="10.56" fill="#1E252A"/>
<rect x="94.9092" y="84.48" width="10.5455" height="42.24" fill="#1E252A"/>
<rect x="42.1819" y="116.16" width="10.5455" height="10.56" fill="#464F54"/>
<rect x="42.1819" y="126.72" width="10.5455" height="10.56" fill="#464F54"/>
<rect x="52.7273" y="137.28" width="10.5455" height="10.56" fill="#464F54"/>
<rect x="63.2727" y="116.16" width="10.5455" height="21.12" fill="#464F54"/>
<rect x="158.182" y="116.16" width="10.5455" height="21.12" fill="#464F54"/>
<rect x="179.273" y="116.16" width="10.5455" height="21.12" fill="#464F54"/>
<rect x="73.8181" y="137.28" width="10.5455" height="10.56" fill="#464F54"/>
<rect x="63.2727" y="147.84" width="10.5455" height="10.56" fill="#464F54"/>
<rect x="147.636" y="137.28" width="10.5455" height="10.56" fill="#464F54"/>
<rect x="168.727" y="137.28" width="10.5455" height="10.56" fill="#464F54"/>
<rect x="158.182" y="147.84" width="10.5455" height="10.56" fill="#464F54"/>
<rect x="126.545" y="73.9199" width="10.5454" height="10.56" fill="#464F54"/>
<rect x="137.091" y="84.48" width="10.5455" height="10.56" fill="#464F54"/>
<rect x="84.3635" y="84.48" width="10.5455" height="10.56" fill="#464F54"/>
<rect x="94.9092" y="73.9199" width="10.5455" height="10.56" fill="#464F54"/>
<rect x="73.8181" y="63.3601" width="10.5455" height="10.56" fill="#464F54"/>
<rect x="63.2727" y="52.8" width="10.5455" height="10.56" fill="#464F54"/>
<rect x="73.8181" y="42.24" width="10.5455" height="10.56" fill="#464F54"/>
<rect x="84.3635" y="21.1201" width="10.5455" height="10.56" fill="#464F54"/>
<rect x="126.545" y="10.5601" width="10.5454" height="10.56" fill="#464F54"/>
<rect x="137.091" y="21.1201" width="10.5455" height="10.56" fill="#464F54"/>
<rect x="147.636" y="42.24" width="10.5455" height="10.56" fill="#464F54"/>
<rect x="158.182" y="52.8" width="10.5455" height="10.56" fill="#464F54"/>
<rect x="147.636" y="63.3601" width="10.5455" height="10.56" fill="#464F54"/>
<rect x="94.9092" y="10.5601" width="10.5455" height="10.56" fill="#464F54"/>
<rect y="147.84" width="10.5455" height="10.56" fill="#464F54"/>
<rect x="221.455" y="147.84" width="10.5455" height="10.56" fill="#464F54"/>
<rect x="73.8181" y="52.8" width="10.5455" height="10.56" fill="#1E252A"/>
<rect x="84.3635" y="63.3601" width="10.5455" height="10.56" fill="#1E252A"/>
<rect x="84.3635" y="73.9199" width="10.5455" height="10.56" fill="#1E252A"/>
<rect x="137.091" y="73.9199" width="10.5455" height="10.56" fill="#1E252A"/>
<rect x="137.091" y="63.3601" width="10.5455" height="10.56" fill="#1E252A"/>
<rect x="147.636" y="52.8" width="10.5455" height="10.56" fill="#1E252A"/>
<rect x="52.7273" y="116.16" width="10.5455" height="21.12" fill="#1E252A"/>
<rect x="73.8181" y="95.04" width="10.5455" height="42.24" fill="#1E252A"/>
<rect x="63.2727" y="137.28" width="10.5455" height="10.56" fill="#1E252A"/>
<rect x="158.182" y="137.28" width="10.5455" height="10.56" fill="#1E252A"/>
<rect x="147.636" y="95.04" width="10.5455" height="42.24" fill="#1E252A"/>
<rect x="105.455" y="84.48" width="21.0909" height="10.56" fill="#5BC0F8"/>
<rect x="105.455" y="168.96" width="21.0909" height="21.12" fill="#5BC0F8"/>
<rect x="63.2727" y="168.96" width="10.5455" height="21.12" fill="#5BC0F8"/>
<rect x="73.8181" y="200.64" width="10.5455" height="10.56" fill="#5BC0F8"/>
<rect x="94.9092" y="200.64" width="10.5455" height="10.56" fill="#5BC0F8"/>
<rect x="158.182" y="168.96" width="10.5455" height="21.12" fill="#5BC0F8"/>
<rect x="147.636" y="200.64" width="10.5455" height="10.56" fill="#5BC0F8"/>
<rect x="126.545" y="200.64" width="10.5454" height="10.56" fill="#5BC0F8"/>
<rect x="137.091" y="211.2" width="10.5455" height="31.68" fill="#5BC0F8"/>
<rect x="84.3635" y="211.2" width="10.5455" height="31.68" fill="#5BC0F8"/>
<rect x="105.455" y="95.04" width="21.0909" height="31.68" fill="#2555E7"/>
<rect x="73.8181" y="211.2" width="10.5455" height="10.56" fill="#2555E7"/>
<rect x="94.9092" y="211.2" width="10.5455" height="10.56" fill="#2555E7"/>
<rect x="84.3635" y="253.44" width="10.5455" height="10.56" fill="#2555E7"/>
<rect x="137.091" y="253.44" width="10.5455" height="10.56" fill="#2555E7"/>
<rect x="147.636" y="211.2" width="10.5455" height="10.56" fill="#2555E7"/>
<rect x="126.545" y="211.2" width="10.5454" height="10.56" fill="#2555E7"/>
<rect x="73.8181" y="168.96" width="31.6364" height="31.68" fill="#F6FBF6"/>
<rect x="126.545" y="168.96" width="31.6364" height="31.68" fill="#F6FBF6"/>
<rect x="84.3635" y="200.64" width="10.5455" height="10.56" fill="#F6FBF6"/>
<rect x="137.091" y="200.64" width="10.5455" height="10.56" fill="#F6FBF6"/>
<rect x="10.5454" y="168.96" width="10.5455" height="10.56" fill="#FCEB77"/>
<rect x="210.909" y="168.96" width="10.5455" height="10.56" fill="#FCEB77"/>
<rect x="10.5454" y="179.52" width="10.5455" height="10.56" fill="#EE9027"/>
<rect x="210.909" y="179.52" width="10.5455" height="10.56" fill="#EE9027"/>
<rect x="10.5454" y="190.08" width="10.5455" height="10.56" fill="#A13413"/>
<rect x="210.909" y="190.08" width="10.5455" height="10.56" fill="#A13413"/>
</svg>
