<svg width="249" height="230" viewBox="0 0 249 230" fill="none" xmlns="http://www.w3.org/2000/svg">
<g id="Ship 2" clip-path="url(#clip0_2022_478)">
<path id="Vector" d="M110.667 147.2L110.667 138L101.444 138L101.444 147.2L110.667 147.2Z" fill="#BAC3AE"/>
<path id="Vector_2" d="M129.111 73.5999L129.111 64.3999L101.444 64.3999L101.444 73.5999L129.111 73.5999Z" fill="#BAC3AE"/>
<path id="Vector_3" d="M184.445 110.4L184.445 101.2L212.111 101.2L212.111 110.4L239.778 110.4L239.778 119.6L212.111 119.6L212.111 128.8L184.445 128.8L184.445 119.6L202.889 119.6L202.889 110.4L184.445 110.4Z" fill="#BAC3AE"/>
<path id="Vector_4" d="M166 91.9998L166 82.7998L147.556 82.7998L147.556 91.9998L166 91.9998Z" fill="#BAC3AE"/>
<path id="Vector_5" d="M184.444 101.2L184.444 92L175.222 92L175.222 101.2L184.444 101.2Z" fill="#BAC3AE"/>
<path id="Vector_6" d="M129.111 165.6L129.111 156.4L101.444 156.4L101.444 165.6L129.111 165.6Z" fill="#BAC3AE"/>
<path id="Vector_7" d="M138.333 230L138.333 211.6L129.111 211.6L129.111 230L138.333 230Z" fill="#BAC3AE"/>
<path id="Vector_8" d="M184.444 138L184.444 128.8L175.222 128.8L175.222 138L184.444 138Z" fill="#BAC3AE"/>
<path id="Vector_9" d="M101.444 138L92.2222 138L92.2222 128.8L83 128.8L83 119.6L73.7778 119.6L73.7778 110.4L83 110.4L83 101.2L92.2222 101.2L92.2222 92L101.444 92L101.444 138Z" fill="#BAC3AE"/>
<path id="Vector_10" d="M110.667 91.9998L110.667 82.7998L101.444 82.7998L101.444 91.9998L110.667 91.9998Z" fill="#BAC3AE"/>
<path id="Vector_11" d="M166 147.2L166 138L147.556 138L147.556 147.2L166 147.2Z" fill="#BAC3AE"/>
<path id="Vector_12" d="M138.333 18.4L138.333 0L129.111 -4.03116e-07L129.111 18.4L138.333 18.4Z" fill="#BAC3AE"/>
<path id="Vector_13" d="M230.556 101.2L230.556 110.4L221.333 110.4L221.333 101.2L230.556 101.2Z" fill="#434F4F"/>
<path id="Vector_14" d="M230.556 119.6L230.556 128.8L221.333 128.8L221.333 119.6L230.556 119.6Z" fill="#434F4F"/>
<path id="Vector_15" d="M249 110.4L249 119.6L239.778 119.6L239.778 110.4L249 110.4Z" fill="#434F4F"/>
<path id="Vector_16" d="M92.2222 230L92.2222 220.8L83 220.8L83 230L92.2222 230Z" fill="#434F4F"/>
<path id="Vector_17" d="M101.444 91.9998L101.444 82.7998L92.2222 82.7998L92.2222 91.9998L101.444 91.9998Z" fill="#434F4F"/>
<path id="Vector_18" d="M202.889 119.6L202.889 110.4L184.444 110.4L184.444 119.6L202.889 119.6Z" fill="#434F4F"/>
<path id="Vector_19" d="M101.444 82.8001L101.444 73.6001L147.556 73.6001L147.556 92.0001L138.333 92.0001L138.333 82.8001L101.444 82.8001Z" fill="#434F4F"/>
<path id="Vector_20" d="M101.444 147.2L101.444 138L92.2222 138L92.2222 147.2L101.444 147.2Z" fill="#434F4F"/>
<path id="Vector_21" d="M101.444 64.4L101.444 73.6L83 73.6L83 82.8L55.3334 82.8L55.3334 73.6L46.1111 73.6L46.1111 64.4L36.8889 64.4L36.8889 27.6L46.1111 27.6L46.1111 18.4L36.8889 18.4L36.8889 9.2L46.1111 9.2L46.1111 -3.22493e-06L55.3334 -2.82181e-06L55.3334 9.2L83 9.2L83 -1.61246e-06L92.2222 -1.20935e-06L92.2222 9.2L110.667 9.2L110.667 18.4L73.7778 18.4L73.7778 27.6L92.2222 27.6L92.2222 36.8L101.444 36.8L101.444 55.2L119.889 55.2L119.889 64.4L101.444 64.4Z" fill="#434F4F"/>
<path id="Vector_22" d="M101.444 156.4L101.444 147.2L138.333 147.2L138.333 138L147.556 138L147.556 156.4L101.444 156.4Z" fill="#434F4F"/>
<path id="Vector_23" d="M64.5555 128.8L64.5555 138L46.1111 138L46.1111 92L64.5555 92L64.5555 101.2L55.3333 101.2L55.3333 128.8L64.5555 128.8Z" fill="#434F4F"/>
<path id="Vector_24" d="M92.2222 138L92.2222 128.8L83 128.8L83 138L92.2222 138Z" fill="#434F4F"/>
<path id="Vector_25" d="M92.2222 101.2L92.2222 92L83 92L83 101.2L92.2222 101.2Z" fill="#434F4F"/>
<path id="Vector_26" d="M55.3334 230L46.1111 230L46.1111 220.8L36.8889 220.8L36.8889 211.6L46.1111 211.6L46.1111 202.4L36.8889 202.4L36.8889 165.6L46.1111 165.6L46.1111 156.4L55.3334 156.4L55.3334 147.2L83 147.2L83 156.4L101.444 156.4L101.444 165.6L119.889 165.6L119.889 174.8L101.444 174.8L101.444 193.2L92.2222 193.2L92.2222 202.4L73.7778 202.4L73.7778 211.6L110.667 211.6L110.667 220.8L55.3334 220.8L55.3334 230Z" fill="#434F4F"/>
<path id="Vector_27" d="M46.1111 138L36.8889 138L36.8889 128.8L27.6666 128.8L27.6666 119.6L18.4444 119.6L18.4444 110.4L27.6666 110.4L27.6666 101.2L36.8889 101.2L36.8889 92L46.1111 92L46.1111 138Z" fill="#F6FBF6"/>
<path id="Vector_28" d="M27.6666 55.1998L27.6666 36.7998L18.4444 36.7998L18.4444 55.1998L27.6666 55.1998Z" fill="#F6FBF6"/>
<path id="Vector_29" d="M27.6666 193.2L27.6666 174.8L18.4444 174.8L18.4444 193.2L27.6666 193.2Z" fill="#F6FBF6"/>
<path id="Vector_30" d="M46.1111 82.7998L46.1111 91.9998L36.8889 91.9998L36.8889 82.7998L46.1111 82.7998Z" fill="#5BC0F8"/>
<path id="Vector_31" d="M36.8889 92L36.8889 101.2L27.6667 101.2L27.6667 92L36.8889 92Z" fill="#5BC0F8"/>
<path id="Vector_32" d="M27.6666 101.2L27.6666 110.4L18.4444 110.4L18.4444 101.2L27.6666 101.2Z" fill="#5BC0F8"/>
<path id="Vector_33" d="M18.4445 110.4L18.4445 119.6L9.22224 119.6L9.22224 110.4L18.4445 110.4Z" fill="#5BC0F8"/>
<path id="Vector_34" d="M27.6666 119.6L27.6666 128.8L18.4444 128.8L18.4444 119.6L27.6666 119.6Z" fill="#5BC0F8"/>
<path id="Vector_35" d="M36.8889 128.8L36.8889 138L27.6667 138L27.6667 128.8L36.8889 128.8Z" fill="#5BC0F8"/>
<path id="Vector_36" d="M46.1111 138L46.1111 147.2L36.8889 147.2L36.8889 138L46.1111 138Z" fill="#5BC0F8"/>
<path id="Vector_37" d="M156.778 128.8L138.333 128.8L138.333 101.2L156.778 101.2L156.778 110.4L175.222 110.4L175.222 119.6L156.778 119.6L156.778 128.8Z" fill="#5BC0F8"/>
<path id="Vector_38" d="M27.6666 55.2002L27.6666 64.4002L18.4444 64.4002L18.4444 55.2002L27.6666 55.2002Z" fill="#5BC0F8"/>
<path id="Vector_39" d="M27.6666 193.2L27.6666 202.4L18.4444 202.4L18.4444 193.2L27.6666 193.2Z" fill="#5BC0F8"/>
<path id="Vector_40" d="M18.4445 55.1998L18.4445 36.7998L9.22224 36.7998L9.22224 55.1998L18.4445 55.1998Z" fill="#5BC0F8"/>
<path id="Vector_41" d="M18.4445 193.2L18.4445 174.8L9.22224 174.8L9.22224 193.2L18.4445 193.2Z" fill="#5BC0F8"/>
<path id="Vector_42" d="M27.6666 27.6001L27.6666 36.8001L18.4444 36.8001L18.4444 27.6001L27.6666 27.6001Z" fill="#5BC0F8"/>
<path id="Vector_43" d="M27.6666 165.6L27.6666 174.8L18.4444 174.8L18.4444 165.6L27.6666 165.6Z" fill="#5BC0F8"/>
<path id="Vector_44" d="M36.8889 9.2002L36.8889 18.4002L27.6667 18.4002L27.6667 9.20019L36.8889 9.2002Z" fill="#5BC0F8"/>
<path id="Vector_45" d="M36.8889 211.6L36.8889 220.8L27.6667 220.8L27.6667 211.6L36.8889 211.6Z" fill="#5BC0F8"/>
<path id="Vector_46" d="M36.8889 82.7998L36.8889 91.9998L27.6667 91.9998L27.6667 82.7998L36.8889 82.7998Z" fill="#2555E7"/>
<path id="Vector_47" d="M27.6666 92L27.6666 101.2L18.4444 101.2L18.4444 92L27.6666 92Z" fill="#2555E7"/>
<path id="Vector_48" d="M18.4445 101.2L18.4445 110.4L9.22224 110.4L9.22224 101.2L18.4445 101.2Z" fill="#2555E7"/>
<path id="Vector_49" d="M9.22229 110.4L9.22229 119.6L6.0633e-05 119.6L6.10352e-05 110.4L9.22229 110.4Z" fill="#2555E7"/>
<path id="Vector_50" d="M18.4445 119.6L18.4445 128.8L9.22224 128.8L9.22224 119.6L18.4445 119.6Z" fill="#2555E7"/>
<path id="Vector_51" d="M27.6666 128.8L27.6666 138L18.4444 138L18.4444 128.8L27.6666 128.8Z" fill="#2555E7"/>
<path id="Vector_52" d="M36.8889 138L36.8889 147.2L27.6667 147.2L27.6667 138L36.8889 138Z" fill="#2555E7"/>
<path id="Vector_53" d="M138.333 138L119.889 138L119.889 128.8L110.667 128.8L110.667 101.2L119.889 101.2L119.889 92L138.333 92L138.333 138Z" fill="#2555E7"/>
<path id="Vector_54" d="M18.4445 27.6001L18.4445 36.8001L9.22224 36.8001L9.22224 27.6001L18.4445 27.6001Z" fill="#2555E7"/>
<path id="Vector_55" d="M18.4445 165.6L18.4445 174.8L9.22224 174.8L9.22224 165.6L18.4445 165.6Z" fill="#2555E7"/>
<path id="Vector_56" d="M9.22229 55.1998L9.22229 36.7998L6.10352e-05 36.7998L6.02309e-05 55.1998L9.22229 55.1998Z" fill="#2555E7"/>
<path id="Vector_57" d="M9.22229 193.2L9.22229 174.8L6.10352e-05 174.8L6.02309e-05 193.2L9.22229 193.2Z" fill="#2555E7"/>
<path id="Vector_58" d="M18.4445 55.2002L18.4445 64.4002L9.22224 64.4002L9.22224 55.2002L18.4445 55.2002Z" fill="#2555E7"/>
<path id="Vector_59" d="M18.4445 193.2L18.4445 202.4L9.22224 202.4L9.22224 193.2L18.4445 193.2Z" fill="#2555E7"/>
<path id="Vector_60" d="M55.3334 46L55.3334 55.2L46.1112 55.2L46.1112 46L55.3334 46Z" fill="#1E252A"/>
<path id="Vector_61" d="M64.5555 36.7998L64.5555 45.9998L55.3333 45.9998L55.3333 36.7998L64.5555 36.7998Z" fill="#1E252A"/>
<path id="Vector_62" d="M73.7778 27.6001L73.7778 36.8001L64.5556 36.8001L64.5556 27.6001L73.7778 27.6001Z" fill="#1E252A"/>
<path id="Vector_63" d="M73.7778 64.3999L73.7778 73.5999L64.5556 73.5999L64.5556 64.3999L73.7778 64.3999Z" fill="#1E252A"/>
<path id="Vector_64" d="M64.5555 82.7998L64.5555 91.9998L55.3333 91.9998L55.3333 82.7998L64.5555 82.7998Z" fill="#1E252A"/>
<path id="Vector_65" d="M73.7778 82.7998L73.7778 91.9998L64.5556 91.9998L64.5556 82.7998L73.7778 82.7998Z" fill="#1E252A"/>
<path id="Vector_66" d="M83 92L83 101.2L73.7778 101.2L73.7778 92L83 92Z" fill="#1E252A"/>
<path id="Vector_67" d="M83 55.2002L83 64.4002L73.7778 64.4002L73.7778 55.2002L83 55.2002Z" fill="#1E252A"/>
<path id="Vector_68" d="M101.444 147.2L101.444 156.4L92.2222 156.4L92.2222 147.2L101.444 147.2Z" fill="#1E252A"/>
<path id="Vector_69" d="M83 165.6L83 174.8L73.7778 174.8L73.7778 165.6L83 165.6Z" fill="#1E252A"/>
<path id="Vector_70" d="M64.5555 184L64.5555 193.2L55.3333 193.2L55.3333 184L64.5555 184Z" fill="#1E252A"/>
<path id="Vector_71" d="M73.7778 156.4L73.7778 165.6L64.5556 165.6L64.5556 156.4L73.7778 156.4Z" fill="#1E252A"/>
<path id="Vector_72" d="M73.7778 138L73.7778 147.2L64.5556 147.2L64.5556 138L73.7778 138Z" fill="#1E252A"/>
<path id="Vector_73" d="M64.5555 138L64.5555 147.2L55.3333 147.2L55.3333 138L64.5555 138Z" fill="#1E252A"/>
<path id="Vector_74" d="M55.3334 174.8L55.3334 184L46.1112 184L46.1112 174.8L55.3334 174.8Z" fill="#1E252A"/>
<path id="Vector_75" d="M92.2222 138L92.2222 147.2L83 147.2L83 138L92.2222 138Z" fill="#1E252A"/>
<path id="Vector_76" d="M83 128.8L83 138L73.7778 138L73.7778 128.8L83 128.8Z" fill="#1E252A"/>
<path id="Vector_77" d="M92.2222 82.7998L92.2222 91.9998L83 91.9998L83 82.7998L92.2222 82.7998Z" fill="#1E252A"/>
<path id="Vector_78" d="M138.333 82.7998L138.333 91.9998L129.111 91.9998L129.111 82.7998L138.333 82.7998Z" fill="#1E252A"/>
<path id="Vector_79" d="M129.111 82.7998L129.111 91.9998L119.889 91.9998L119.889 82.7998L129.111 82.7998Z" fill="#1E252A"/>
<path id="Vector_80" d="M147.556 92L147.556 101.2L138.333 101.2L138.333 92L147.556 92Z" fill="#1E252A"/>
<path id="Vector_81" d="M156.778 92L156.778 101.2L147.556 101.2L147.556 92L156.778 92Z" fill="#1E252A"/>
<path id="Vector_82" d="M166 101.2L166 110.4L156.778 110.4L156.778 101.2L166 101.2Z" fill="#1E252A"/>
<path id="Vector_83" d="M175.222 101.2L175.222 110.4L166 110.4L166 101.2L175.222 101.2Z" fill="#1E252A"/>
<path id="Vector_84" d="M184.444 110.4L184.444 119.6L175.222 119.6L175.222 110.4L184.444 110.4Z" fill="#1E252A"/>
<path id="Vector_85" d="M175.222 119.6L175.222 128.8L166 128.8L166 119.6L175.222 119.6Z" fill="#1E252A"/>
<path id="Vector_86" d="M166 119.6L166 128.8L156.778 128.8L156.778 119.6L166 119.6Z" fill="#1E252A"/>
<path id="Vector_87" d="M156.778 128.8L156.778 138L147.556 138L147.556 128.8L156.778 128.8Z" fill="#1E252A"/>
<path id="Vector_88" d="M147.556 128.8L147.556 138L138.333 138L138.333 128.8L147.556 128.8Z" fill="#1E252A"/>
<path id="Vector_89" d="M138.333 138L138.333 147.2L129.111 147.2L129.111 138L138.333 138Z" fill="#1E252A"/>
<path id="Vector_90" d="M129.111 138L129.111 147.2L119.889 147.2L119.889 138L129.111 138Z" fill="#1E252A"/>
<path id="Vector_91" d="M92.2222 174.8L92.2222 184L83 184L83 174.8L92.2222 174.8Z" fill="#1E252A"/>
<path id="Vector_92" d="M73.7778 193.2L73.7778 202.4L64.5556 202.4L64.5556 193.2L73.7778 193.2Z" fill="#1E252A"/>
<path id="Vector_93" d="M119.889 128.8L119.889 138L110.667 138L110.667 128.8L119.889 128.8Z" fill="#1E252A"/>
<path id="Vector_94" d="M110.667 119.6L110.667 128.8L101.444 128.8L101.444 119.6L110.667 119.6Z" fill="#1E252A"/>
<path id="Vector_95" d="M101.444 73.6001L101.444 82.8001L92.2222 82.8001L92.2222 73.6001L101.444 73.6001Z" fill="#1E252A"/>
<path id="Vector_96" d="M110.667 110.4L110.667 119.6L101.444 119.6L101.444 110.4L110.667 110.4Z" fill="#1E252A"/>
<path id="Vector_97" d="M110.667 101.2L110.667 110.4L101.444 110.4L101.444 101.2L110.667 101.2Z" fill="#1E252A"/>
<path id="Vector_98" d="M119.889 92L119.889 101.2L110.667 101.2L110.667 92L119.889 92Z" fill="#1E252A"/>
<path id="Vector_99" d="M92.2222 46L92.2222 55.2L83 55.2L83 46L92.2222 46Z" fill="#1E252A"/>
<path id="Vector_100" d="M129.111 230L92.2222 230L92.2222 220.8L110.667 220.8L110.667 211.6L129.111 211.6L129.111 230Z" fill="#7F918B"/>
<path id="Vector_101" d="M36.8889 55.1998L36.8889 36.7998L27.6667 36.7998L27.6667 55.1998L36.8889 55.1998Z" fill="#7F918B"/>
<path id="Vector_102" d="M36.8889 193.2L36.8889 174.8L27.6667 174.8L27.6667 193.2L36.8889 193.2Z" fill="#7F918B"/>
<path id="Vector_103" d="M129.111 64.4002L129.111 55.2002L119.889 55.2002L119.889 64.4002L129.111 64.4002Z" fill="#7F918B"/>
<path id="Vector_104" d="M110.667 101.2L110.667 92L101.444 92L101.444 101.2L110.667 101.2Z" fill="#7F918B"/>
<path id="Vector_105" d="M184.444 128.8L184.444 119.6L175.222 119.6L175.222 128.8L184.444 128.8Z" fill="#7F918B"/>
<path id="Vector_106" d="M156.778 82.8001L156.778 73.6001L147.556 73.6001L147.556 82.8001L156.778 82.8001Z" fill="#7F918B"/>
<path id="Vector_107" d="M193.667 138L193.667 128.8L184.444 128.8L184.444 138L193.667 138Z" fill="#7F918B"/>
<path id="Vector_108" d="M110.667 138L110.667 128.8L101.444 128.8L101.444 138L110.667 138Z" fill="#7F918B"/>
<path id="Vector_109" d="M92.2222 27.5999L92.2222 18.3999L73.7777 18.3999L73.7777 27.5999L92.2222 27.5999Z" fill="#7F918B"/>
<path id="Vector_110" d="M119.889 91.9998L119.889 82.7998L110.667 82.7998L110.667 91.9998L119.889 91.9998Z" fill="#7F918B"/>
<path id="Vector_111" d="M83 91.9998L83 82.7998L73.7778 82.7998L73.7778 91.9998L83 91.9998Z" fill="#7F918B"/>
<path id="Vector_112" d="M110.667 18.4L110.667 9.2L92.2222 9.2L92.2222 -1.61246e-06L129.111 0L129.111 18.4L110.667 18.4Z" fill="#7F918B"/>
<path id="Vector_113" d="M64.5555 36.8001L64.5555 27.6001L55.3333 27.6001L55.3333 36.8001L64.5555 36.8001Z" fill="#7F918B"/>
<path id="Vector_114" d="M73.7778 64.4002L73.7778 55.2002L64.5556 55.2002L64.5556 64.4002L73.7778 64.4002Z" fill="#7F918B"/>
<path id="Vector_115" d="M92.2222 82.8001L92.2222 73.6001L83 73.6001L83 82.8001L92.2222 82.8001Z" fill="#7F918B"/>
<path id="Vector_116" d="M83 55.2L83 46L73.7778 46L73.7778 55.2L83 55.2Z" fill="#7F918B"/>
<path id="Vector_117" d="M193.667 101.2L193.667 92L184.444 92L184.444 101.2L193.667 101.2Z" fill="#7F918B"/>
<path id="Vector_118" d="M166 91.9998L166 82.7998L175.222 82.7998L175.222 101.2L156.778 101.2L156.778 91.9998L166 91.9998Z" fill="#7F918B"/>
<path id="Vector_119" d="M147.556 73.5999L147.556 64.3999L129.111 64.3999L129.111 73.5999L147.556 73.5999Z" fill="#7F918B"/>
<path id="Vector_120" d="M101.444 36.8001L101.444 27.6001L92.2222 27.6001L92.2222 36.8001L101.444 36.8001Z" fill="#7F918B"/>
<path id="Vector_121" d="M184.444 110.4L184.444 101.2L175.222 101.2L175.222 110.4L184.444 110.4Z" fill="#7F918B"/>
<path id="Vector_122" d="M221.333 128.8L221.333 119.6L212.111 119.6L212.111 128.8L221.333 128.8Z" fill="#7F918B"/>
<path id="Vector_123" d="M73.7778 9.2L73.7778 0L55.3334 -8.06232e-07L55.3334 9.2L73.7778 9.2Z" fill="#7F918B"/>
<path id="Vector_124" d="M55.3334 45.9998L55.3334 36.7998L46.1112 36.7998L46.1112 45.9998L55.3334 45.9998Z" fill="#7F918B"/>
<path id="Vector_125" d="M110.667 55.2L110.667 46L101.444 46L101.444 55.2L110.667 55.2Z" fill="#7F918B"/>
<path id="Vector_126" d="M221.333 110.4L221.333 101.2L212.111 101.2L212.111 110.4L221.333 110.4Z" fill="#7F918B"/>
<path id="Vector_127" d="M73.7778 128.8L73.7778 138L64.5555 138L64.5555 128.8L55.3333 128.8L55.3333 101.2L64.5556 101.2L64.5556 92L73.7778 92L73.7778 101.2L83 101.2L83 110.4L73.7778 110.4L73.7778 119.6L83 119.6L83 128.8L73.7778 128.8Z" fill="#7F918B"/>
<path id="Vector_128" d="M129.111 174.8L129.111 165.6L119.889 165.6L119.889 174.8L129.111 174.8Z" fill="#7F918B"/>
<path id="Vector_129" d="M92.2222 156.4L92.2222 147.2L83 147.2L83 156.4L92.2222 156.4Z" fill="#7F918B"/>
<path id="Vector_130" d="M156.778 156.4L156.778 147.2L147.556 147.2L147.556 156.4L156.778 156.4Z" fill="#7F918B"/>
<path id="Vector_131" d="M119.889 147.2L119.889 138L110.667 138L110.667 147.2L119.889 147.2Z" fill="#7F918B"/>
<path id="Vector_132" d="M83 147.2L83 138L73.7778 138L73.7778 147.2L83 147.2Z" fill="#7F918B"/>
<path id="Vector_133" d="M101.444 202.4L101.444 193.2L92.2222 193.2L92.2222 202.4L101.444 202.4Z" fill="#7F918B"/>
<path id="Vector_134" d="M73.7778 174.8L73.7778 165.6L64.5556 165.6L64.5556 174.8L73.7778 174.8Z" fill="#7F918B"/>
<path id="Vector_135" d="M110.667 184L110.667 174.8L101.444 174.8L101.444 184L110.667 184Z" fill="#7F918B"/>
<path id="Vector_136" d="M55.3334 193.2L55.3334 184L46.1112 184L46.1112 193.2L55.3334 193.2Z" fill="#7F918B"/>
<path id="Vector_137" d="M64.5555 202.4L64.5555 193.2L55.3333 193.2L55.3333 202.4L64.5555 202.4Z" fill="#7F918B"/>
<path id="Vector_138" d="M83 184L83 174.8L73.7778 174.8L73.7778 184L83 184Z" fill="#7F918B"/>
<path id="Vector_139" d="M156.778 128.8L175.222 128.8L175.222 147.2L166 147.2L166 138L156.778 138L156.778 128.8Z" fill="#7F918B"/>
<path id="Vector_140" d="M147.556 165.6L147.556 156.4L129.111 156.4L129.111 165.6L147.556 165.6Z" fill="#7F918B"/>
<path id="Vector_141" d="M92.2222 211.6L92.2222 202.4L73.7777 202.4L73.7777 211.6L92.2222 211.6Z" fill="#7F918B"/>
<path id="Vector_142" d="M73.7778 230L73.7778 220.8L55.3334 220.8L55.3334 230L73.7778 230Z" fill="#7F918B"/>
</g>
<defs>
<clipPath id="clip0_2022_478">
<rect width="230" height="249" fill="white" transform="translate(249) rotate(90)"/>
</clipPath>
</defs>
</svg>
